PathFileType	4	(X/Y/Z)	C:\Users\dbl\Desktop\LZH\BX\Trimmed_Trimmed_bx_y_10_901.trc
DataRate	CameraRate	NumFrames	NumMarkers	Units	OrigDataRate	OrigDataStartFrame	OrigNumFrames
50.00	50.00	       4	43	mm	50.00	217	       247
Frame#	Time	Top.Head			R.Acromium			L.Acromium			Sternum			R.ASIS			L.ASIS			V.Sacral			R.Thigh.Upper			R.Thigh.Front			R.Thigh.Rear			R.Knee.Lat			R.Knee.Med			R.Shank.Upper			R.Shank.Front			R.Shank.Rear			R.Ankle.Lat			R.Midfoot.Lat			R.Toe.Lat			R.Toe.Tip			R.Toe.Med			R.Ankle.Med			R.Midfoot.Sup			R.Heel			L.Thigh.Upper			L.Thigh.Front			L.Thigh.Rear			L.Knee.Lat			L.Knee.Med			L.Shank.Upper			L.Shank.Front			L.Shank.Rear			L.Ankle.Lat			L.Midfoot.Lat			L.Toe.Lat			L.Toe.Tip			L.Toe.Med			L.Ankle.Med			L.Midfoot.Sup			L.Heel			origin1 front left			origin2 front right			origin 3 back right			origin 4 back leftt			
		X1	Y1	Z1	X2	Y2	Z2	X3	Y3	Z3	X4	Y4	Z4	X5	Y5	Z5	X6	Y6	Z6	X7	Y7	Z7	X8	Y8	Z8	X9	Y9	Z9	X10	Y10	Z10	X11	Y11	Z11	X12	Y12	Z12	X13	Y13	Z13	X14	Y14	Z14	X15	Y15	Z15	X16	Y16	Z16	X17	Y17	Z17	X18	Y18	Z18	X19	Y19	Z19	X20	Y20	Z20	X21	Y21	Z21	X22	Y22	Z22	X23	Y23	Z23	X24	Y24	Z24	X25	Y25	Z25	X26	Y26	Z26	X27	Y27	Z27	X28	Y28	Z28	X29	Y29	Z29	X30	Y30	Z30	X31	Y31	Z31	X32	Y32	Z32	X33	Y33	Z33	X34	Y34	Z34	X35	Y35	Z35	X36	Y36	Z36	X37	Y37	Z37	X38	Y38	Z38	X39	Y39	Z39	X40	Y40	Z40	X41	Y41	Z41	X42	Y42	Z42	X43	Y43	Z43	

217	4.320	-268.03992	245.87144	1545.40002	-374.50836	58.73106	1281.60498	-360.45578	425.91998	1272.60803	-431.27493	258.59140	1201.02087	-697.47632	149.53763	1014.08356	-618.42926	392.21347	1038.97656	-886.13281	245.20564	1086.65125	-751.81183	93.79786	880.64899	-698.44385	149.96156	834.59167	-784.83374	82.79541	735.84613	-763.36401	118.41620	594.57977	-738.68817	225.23044	549.90094	-781.11102	116.77710	524.00317	-700.33014	165.93051	546.44391	-800.52368	118.32669	449.65829	-695.89075	137.86154	210.23946	-616.00964	76.06221	164.77029	-571.49890	48.80064	158.00134	-494.39566	95.19462	160.44394	-533.82507	144.12070	165.35570	-646.20325	211.38824	226.66823	-595.03632	185.35039	174.45381	-720.37860	208.16641	168.97379	-744.18127	433.96716	875.61957	-693.07379	370.70880	830.99512	-771.20850	444.67566	740.28503	-774.54474	418.71835	611.18018	-730.70203	313.38550	568.51721	-766.62018	416.57358	549.50854	-708.72638	372.77878	538.42578	-803.87964	424.20740	486.98135	-688.58948	420.43726	211.55431	-585.77850	469.70193	161.61429	-546.59918	482.32629	155.62109	-490.10580	426.51779	167.73787	-526.91858	388.00113	177.01788	-650.67163	331.75589	214.42891	-596.46625	351.81708	173.31111	-731.85535	346.48517	164.64786	-443.86871	449.00381	147.13882	-450.42111	75.78244	143.70757	-806.09869	82.60500	142.68593	-799.41791	457.94217	145.67279	
218	4.340	-280.70410	244.97260	1562.49146	-381.51950	58.28436	1293.42004	-366.00449	427.12323	1287.70532	-434.81342	258.44037	1206.12683	-695.55609	149.89796	1015.62726	-623.70898	391.72546	1039.32031	-884.04529	246.16090	1086.18457	-748.17920	94.84998	881.07751	-695.01831	150.58060	835.64801	-781.03699	83.44415	736.70184	-760.79980	118.90083	595.37787	-736.28345	225.67357	551.14783	-778.96667	117.26027	524.81201	-697.97327	166.25647	546.77283	-798.83673	118.69749	450.49179	-695.81610	137.97661	210.27403	-616.03168	76.19122	164.60762	-571.56476	48.71385	157.96384	-494.34097	95.13564	160.52255	-533.80878	144.05231	165.37448	-646.22308	211.59085	225.91760	-595.18060	185.29311	174.31197	-720.39587	208.21884	168.99026	-740.64038	434.35898	876.72858	-689.56274	371.45047	831.93097	-767.80682	445.28671	741.34802	-771.96790	419.28085	612.13708	-728.14252	314.42209	568.56848	-764.40161	417.01862	550.19629	-706.46619	373.49069	538.93774	-801.87115	424.65802	487.74182	-688.44037	420.54123	211.76527	-585.77881	469.78583	161.52492	-546.55524	482.44797	155.53651	-490.01645	426.60779	167.75018	-526.84155	387.98492	177.01054	-650.55920	331.84137	214.43398	-596.39069	351.79672	173.25293	-731.82947	346.54099	164.90616	-443.84695	448.98618	147.12000	-450.40247	75.83654	143.58430	-806.01477	82.55392	142.78226	-799.39185	458.02328	145.64125	
219	4.360	-293.84311	244.08340	1579.36865	-388.79282	57.87114	1305.43274	-371.94379	428.32846	1302.83997	-438.42957	258.27997	1211.40808	-693.58405	150.30179	1017.19427	-628.60693	391.26031	1039.70447	-881.90045	247.20549	1085.72925	-744.50073	95.68771	881.90448	-691.35303	151.16342	836.76215	-777.15662	84.14272	737.52368	-758.07190	119.36089	596.15295	-733.63867	226.03690	552.33508	-776.66101	117.75917	525.57971	-695.48920	166.64709	547.11237	-796.98102	119.11940	451.32397	-695.76263	138.13182	210.32115	-616.06189	76.29864	164.55923	-571.59210	48.63739	157.95291	-494.25693	95.10160	160.56816	-533.80603	143.95151	165.44077	-645.99994	211.94652	225.41563	-595.21716	185.39902	174.14980	-720.37366	208.24217	168.99826	-737.02722	434.53922	877.61005	-685.87817	372.30872	832.88531	-764.39215	445.97461	742.46136	-769.30042	419.93826	613.16907	-725.56879	315.30368	568.79248	-762.08350	417.46921	550.83368	-704.10327	374.30322	539.78784	-799.64624	425.24377	488.34906	-688.27820	420.66736	211.99312	-585.75531	469.86899	161.46996	-546.48969	482.55896	155.43527	-489.94662	426.65820	167.73950	-526.77216	387.97263	177.01964	-650.47229	331.87836	214.47592	-596.34241	351.78922	173.21481	-731.91168	346.70413	165.16560	-443.83301	448.98544	147.11234	-450.40613	75.84194	143.57646	-806.01007	82.52737	142.81499	-799.34143	458.09949	145.59001	
220	4.380	-307.40961	243.30986	1595.99036	-396.32898	57.49376	1317.65039	-378.26675	429.40668	1317.75513	-442.12366	258.11002	1216.86658	-691.56702	150.75171	1018.78064	-633.10736	390.81924	1040.13000	-879.72943	248.27113	1085.28625	-740.79352	96.38213	882.98926	-687.56653	151.74802	837.81177	-773.35425	84.86427	738.34399	-755.27832	119.82405	596.92535	-730.84875	226.32321	553.23022	-774.27930	118.24292	526.31396	-693.00311	167.13898	547.40741	-795.08978	119.58765	452.15192	-695.71515	138.33914	210.38634	-616.09576	76.39167	164.56660	-571.60895	48.59782	157.93394	-494.17023	95.06202	160.58156	-533.80139	143.86142	165.53969	-645.52893	212.39720	225.29140	-595.15076	185.62489	173.98296	-720.32684	208.26268	168.98352	-733.31348	434.79636	878.43445	-682.14771	373.20535	833.85638	-760.97711	446.73657	743.59906	-766.60809	420.59097	614.19946	-723.10199	315.92441	569.35370	-759.69348	417.92661	551.49609	-701.70825	375.01062	540.62280	-797.36731	425.91803	489.01874	-688.05157	420.86072	212.27200	-585.68231	469.97397	161.48352	-546.41241	482.63556	155.34587	-489.90091	426.69104	167.71007	-526.69476	387.96689	177.05110	-650.44910	331.94037	214.48055	-596.35626	351.78232	173.19492	-732.08514	347.00497	165.44528	-443.83005	448.99796	147.12325	-450.41489	75.82326	143.61963	-806.09692	82.54745	142.75433	-799.25153	458.14243	145.56789	
